<svg width="181" height="182" viewBox="0 0 181 182" fill="none" xmlns="http://www.w3.org/2000/svg">
<g clip-path="url(#clip0_814_611)">
<path fill-rule="evenodd" clip-rule="evenodd" d="M98.9166 66.8337C100.749 62.642 101.001 57.9597 99.0277 52.9006C92.9234 37.251 79.7785 31.8538 64.7929 32.2803C42.9114 32.9039 17.0728 46.1297 4.60861 57.0217C4.01767 57.5369 3.95948 58.4332 4.47435 59.0205C4.98954 59.6115 5.88604 59.6731 6.47696 59.1579C18.5739 48.5854 43.6393 35.722 64.8755 35.1153C78.6353 34.7241 90.7788 39.5585 96.3836 53.9331C98.0547 58.2101 97.8289 62.1608 96.2887 65.7089C93.9546 64.7381 91.6236 63.846 89.2999 63.0359C82.8848 60.8014 65.3847 58.1531 52.9183 60.8027C43.9761 62.7057 37.6285 67.3246 38.6346 76.1188C39.195 81.0068 42.5574 84.2842 47.6037 86.0275C54.54 88.4284 64.7962 87.8692 74.4115 84.912C82.4174 82.4513 89.9664 78.3419 94.8085 73.0246C95.8703 71.8538 96.8088 70.629 97.5952 69.3494C129.713 83.4284 161.098 112.055 175.982 142.97C176.324 143.673 177.169 143.973 177.876 143.631C178.583 143.292 178.879 142.443 178.54 141.74C163.411 110.322 131.564 81.215 98.9166 66.8337ZM94.9417 68.2196C92.746 67.3121 90.5529 66.4763 88.3665 65.7154C82.2184 63.5761 65.4538 61.0394 53.5095 63.5786C46.1792 65.1359 40.628 68.5894 41.4523 75.797C41.8875 79.582 44.6244 81.9943 48.53 83.3487C52.8279 84.8341 58.4916 85.0503 64.4386 84.232C73.4672 82.9897 83.1451 79.3516 89.7447 73.9166C91.8363 72.1958 93.6136 70.2904 94.9417 68.2196Z" fill="url(#paint0_linear_814_611)"/>
<path fill-rule="evenodd" clip-rule="evenodd" d="M127.516 121.752C144.382 123.144 163.025 132.459 176.301 143.094C176.912 143.583 177.805 143.483 178.294 142.873C178.783 142.262 178.687 141.369 178.077 140.88C164.387 129.911 145.137 120.362 127.75 118.925C126.972 118.86 126.286 119.441 126.222 120.223C126.157 121.001 126.738 121.687 127.516 121.752Z" fill="#FBFBFB"/>
<path fill-rule="evenodd" clip-rule="evenodd" d="M178.36 140.671C170.333 129.092 167.736 110.48 170.07 96.543C170.2 95.7699 169.68 95.0356 168.907 94.9092C168.134 94.7792 167.403 95.2993 167.273 96.0725C164.828 110.673 167.62 130.155 176.029 142.287C176.473 142.931 177.36 143.09 178.004 142.646C178.648 142.198 178.808 141.315 178.36 140.671Z" fill="#FBFBFB"/>
</g>
<defs>
<linearGradient id="paint0_linear_814_611" x1="173.529" y1="83.3858" x2="-26.999" y2="67" gradientUnits="userSpaceOnUse">
<stop stop-color="#FBFBFB"/>
<stop offset="1" stop-color="#FBFBFB" stop-opacity="0"/>
</linearGradient>
<clipPath id="clip0_814_611">
<rect width="166.822" height="166.822" fill="white" transform="translate(166.289 0.487305) rotate(85.0023)"/>
</clipPath>
</defs>
</svg>
