<svg width="400" height="400" viewBox="0 0 400 400" fill="none" xmlns="http://www.w3.org/2000/svg">
<path d="M164.685 82.6879C178.329 64.9795 195.691 51.9444 219.488 57.1617C286.551 71.8616 273.651 175.626 207.311 180.299C153.595 184.086 133.498 92.5186 176.862 79.6848" stroke="white" stroke-width="16" stroke-linecap="round" stroke-linejoin="round"/>
<path d="M154.383 209.91C158.214 236.859 161.876 260.069 165.369 279.538C168.862 299.007 171.651 320.033 173.736 342.618" stroke="white" stroke-width="16" stroke-linecap="round" stroke-linejoin="round"/>
<path d="M244.235 216.822C241.811 230.515 235.568 259.88 230.87 286.947C225.675 316.88 222.117 344 222.117 344" stroke="white" stroke-width="16" stroke-linecap="round" stroke-linejoin="round"/>
<path d="M244.235 210.218C230.059 210.218 178.928 203.526 164.844 205.311C160.186 205.893 155.521 206.485 150.864 207.067C148.861 207.321 146.844 207.678 144.83 207.816C137.124 208.354 74.168 225.283 71.3345 225.115C70.6641 225.072 70.0075 225.031 69.3398 224.977C68.0348 224.871 65.858 224.809 64.8454 224.428C62.7127 223.603 60.7925 222.959 59.1122 221.312C58.4125 220.63 60.9308 202.275 68.1742 172.505C74.8686 144.991 85.0504 120.92 87.1044 119.195C89.1322 117.504 103.116 106.232 103.985 106.232C105.467 106.232 106.937 106.543 108.433 106.765C110.662 107.103 116.396 111.668 117.378 112.885C119.425 115.441 117.985 118.799 114.324 124.188C110.662 129.577 102.428 129.577 99.487 132.006" stroke="white" stroke-width="16" stroke-linecap="round" stroke-linejoin="round"/>
<path d="M244.236 210.219C259.263 210.219 336.817 239.868 338.173 241.885C339.593 244.006 341 245.918 341 248.358C341 252.658 337.853 256.598 334.122 259.782C328.918 264.217 323.012 268.174 317.383 272.315C314.063 274.752 310.732 277.2 307.412 279.637C302.181 283.48 252.811 315.848 247.102 319.25C243.095 321.641 238.989 323.988 235.309 326.643C235.234 327.191 235.088 327.742 234.877 328.285C234.398 329.489 228.562 342.928 227.647 344" stroke="white" stroke-width="16" stroke-linecap="round" stroke-linejoin="round"/>
</svg>
